Patient5_TMGait_0pt45_1_right_10_EMG.mot
version=1
nRows=26
nColumns=33
inDegrees=no
endheader
time	1LAddLong	2LGlutMax	3LGlutMed	4LIliopsoas	5LSemiMemb	6LBicFemLong	7LRecFem	8LTensFascLat	9LVastMed	10LVasLat	11LGasMed	12lGasLat	13LTibAnt	14LPeroneusLong	15LSol	16LTibPost	17RAddLong	18RGlutMax	19RGlutMed	20RIliopsoas	21RSemiMemb	22RBicFemLong	23RRecFem	24RTensFascLat	25RVastMed	26RVasLat	27RGasMed	28RGasLat	29RTibAnt	30RPeroneusLong	31RSol	32RTibPost
18.12	0.013275	0.003662	-0.016479	-0.016022	0.02243	0.020752	-0.000916	-0.057373	-0.023193	-0.017853	0.019684	-0.013275	-0.27847	0.006409	0.018158	0.064697	0.024261	-0.003204	0.089569	0.10712	0.01709	0.000153	-0.00061	-0.034943	-0.003662	0.003357	-0.000305	-0.002899	-0.021515	0.000305	-0.014496	0
18.121	-0.039673	0.010376	-0.063629	-0.007019	0.01358	0.03067	0.000916	-0.18402	-0.020905	-0.003662	0.000763	-0.01236	0.13931	0.022278	0.01709	0.11597	0.032806	-0.002289	0.014954	0	0.006866	-0.002899	0.001526	-0.036163	0.000763	-0.003357	0	0.007477	-0.022278	-0.004883	-0.010986	-0.002136
18.122	-0.048218	0.005188	-0.007477	0.015259	-0.10498	0.092773	-0.003357	-0.2356	-0.026703	-0.010376	-0.036621	-0.003357	0.3125	0.026703	-0.026093	-0.065765	0.020447	-0.002594	-0.000916	0.038757	0.014038	0.006256	0.002136	-0.039368	-0.000458	0.000458	0.001831	-0.011749	-0.026703	-0.007935	-0.006104	-0.005493
18.123	-0.007782	0.004272	0.09613	0.016785	-0.080872	0.18356	-0.008545	-0.22492	-0.02655	-0.019989	-0.094452	-0.019226	0.33386	0.027924	-0.059204	0.028534	0.026398	-0.002899	0.032349	0.024414	0.016479	0.000305	0.005188	-0.03067	0.001526	-0.00412	0.006409	-0.013123	-0.024414	-0.007629	-0.007782	0.001984
18.124	0.019073	0.002747	0.089417	0.018158	-0.071106	0.1712	-0.005035	-0.25559	-0.028687	-0.032043	-0.089417	0.010223	0.26337	0.018616	-0.04776	0.020294	0.022125	-0.00061	0.059052	-0.06012	0.014801	0.004883	0.01297	-0.024261	0.001984	-0.000916	0.001526	-0.004883	-0.021362	-0.003357	-0.00946	0.00061
18.125	0.02182	-0.004883	0.045471	0.011139	-0.054626	0.085449	-0.001526	-0.19638	-0.029449	-0.031586	-0.091553	0.031128	0.1738	-0.01709	0.011902	-0.059204	0.017548	-0.002747	0.027618	0.14008	0.018616	-0.001831	-0.001373	0.017395	0.007172	-0.002289	0.000458	-0.001221	-0.027161	0.001373	-0.009766	0.003967
18.126	0.00473	0.001068	0.0354	0.009308	-0.0177	0.069275	-0.002899	-0.15442	-0.032959	-0.032196	0.055237	0.005493	0.054779	-0.046387	0.10727	0.052643	0.022278	-0.002594	0.01297	0.042419	0.005188	-0.003815	-0.001526	0.012512	-0.001068	-0.002441	0.00885	-0.00412	-0.019836	0.001068	-0.016785	0.001221
18.127	-0.024567	-0.007629	-0.000763	0.005341	-0.004578	0.050964	-0.00473	-0.16571	-0.030212	-0.025635	0.078583	-0.012207	0.031433	-0.018005	0.023499	-0.057526	0.021515	0.000305	0.061646	0.026245	0.005798	0.004272	0.003662	-0.015106	-0.002441	-0.002594	-0.000153	-0.002441	-0.002594	0.002289	-0.017395	-0.00412
18.128	-0.031891	-0.001373	-0.020294	0.013733	0.002441	0.011444	0.003815	-0.12604	-0.021973	-0.019379	-0.033722	0.002747	0.005798	0.01709	0.026703	0.058289	0.019073	-0.001831	0.046234	0.094757	-0.003815	-0.001373	-0.000458	-0.032501	-0.004578	-0.001678	0.005341	-0.00351	0.008087	0.006561	-0.019379	0.007324
18.129	-0.014496	0.010529	-0.044708	0.009308	-0.003052	0.041199	0.008392	-0.092468	-0.014343	0.001526	-0.076447	0.015869	0.003052	0.037994	0.082092	0.043488	0.014038	0.000153	0.038605	0.053711	0.014954	0.006256	-0.002594	-0.027008	0.000458	0.004578	0.004272	-0.00946	0.017548	0.009308	-0.011444	-0.003052
18.13	0.000763	0.00824	-0.11963	0.005646	-0.010376	0.01236	0.004425	-0.15259	-0.010071	0.028229	-0.07782	0.010071	0.034943	0.029297	0.000763	-0.093384	0.015259	-0.002899	0.027008	-0.20386	0.011749	-0.00412	0.002289	-0.019989	0.000153	0.001373	0.000916	-0.009003	0.019836	0.00885	0.00412	-0.001831
18.131	0.013885	0.009918	-0.076599	0.024109	-0.046082	0.10696	0.010376	-0.10956	0.005493	0.04837	0.025482	0.006561	0.036316	0.008087	-0.055237	-0.027466	0.016785	-0.00351	0.030975	-0.053558	0.009918	0.010986	0.003815	-0.014801	0.001068	-0.005493	-0.002136	0.009003	0.009613	0.013428	0.002441	-0.001373
18.132	0.017548	0.008087	-0.050659	0.040588	-0.012817	0.20538	0.006714	-0.13153	0.029755	0.050964	-0.014038	0.024109	0.036469	-0.005341	-0.066071	0.03952	0.017853	-0.002899	0.083466	0.022888	0.012512	-0.00885	0.004578	0.014648	0.004883	-0.000305	0.003967	0.001831	0.000458	0.010529	0.000153	0.006409
18.133	0.029602	0.010071	0.010681	0.038605	-0.007324	0.14694	0.008698	-0.068054	0.040436	0.04715	0.18021	0.031433	0.032043	-0.006104	-0.066833	0.024109	0.013123	-0.001678	0.037384	0.041504	0.016785	-0.008087	0.002289	0.024414	0.006714	0.007019	-0.000153	-0.0177	0.004425	0.000916	-0.005035	0.005188
18.134	0.030212	0.000916	0.055084	0.023499	0.009918	0.08255	0.00946	0.02655	0.03891	0.031128	0.067444	-0.002289	0.019531	-0.026855	-0.003357	0.033875	0.010071	-0.001221	0.040131	-0.052795	0.020599	-0.000153	-0.001221	-0.007782	0.006866	0.001373	0.00061	-0.008698	0.001984	-0.000153	-0.009613	0.002899
18.135	0.011749	-0.011902	0.043488	0.010071	0.012512	-0.06073	0.00473	0.069122	0.037842	0.009918	0.038452	-0.01236	0.004425	-0.011749	0.014038	0.1088	0.011444	-0.000763	0.016174	-0.007172	0.044098	-0.006866	-0.008392	-0.015106	0.007019	-0.002747	-0.000458	-0.018768	0.007782	0.010376	-0.011292	-0.001526
18.136	0.052185	-0.001984	-0.011292	-0.009308	0.008545	-0.224	0.014038	-0.032806	0.032196	-0.005188	0.055695	-0.016632	0.03067	0.002899	0.02243	-0.049133	0.005188	-0.001526	0.00885	-0.014648	0.037537	0.002899	-0.010071	-0.070038	0.000916	-0.002441	-0.001984	-0.019989	0.002594	-0.004578	-0.008698	0.006561
18.137	0.04715	-0.002441	-0.050354	-0.00473	0.007629	-0.27451	0.000305	-0.046844	0.028839	-0.018616	0.058289	-0.016174	0.032501	0.013428	-0.063934	-0.13336	0.009766	-0.003052	0.050049	-0.12451	0.050812	0.000763	-0.014496	-0.12665	0.006256	-0.004883	0.002441	-0.022736	0.000458	-0.003357	-0.013275	-0.001984
18.138	0.014954	-0.011749	-0.023193	-0.001984	-0.018311	-0.23163	-0.002594	-0.015869	0.016785	-0.012817	0.029449	-0.000916	0.042877	0.016632	-0.067902	0.025787	0.003815	-0.004272	0.034943	-0.06546	0.067902	0.004425	-0.017548	-0.17258	0.001984	0.000458	0.003357	-0.003052	0.004425	0.000458	-0.012512	-0.002441
18.139	-0.019989	-0.003052	0.023804	0.017242	-0.011292	-0.22003	-0.010071	0.028381	0.011597	-0.023499	-0.007629	0.011292	0.031586	-0.004578	0.047455	0.053253	0.005798	-0.000763	-0.019073	-0.14374	0.049591	0.005341	-0.014648	-0.18478	0.007324	-0.009613	-0.000153	0.001526	-0.010681	0	-0.009766	-0.001831
18.14	-0.021515	-0.005341	-0.001068	-0.004883	-0.001678	-0.28595	-0.013428	0.038452	-0.00946	-0.078583	-0.005646	0.008545	-0.009918	-0.026093	0.1181	-0.073395	-0.000458	-0.001221	0.052032	0.1326	0.057068	0.003967	-0.006866	-0.21057	0.006714	-0.010223	-0.000916	-0.009766	-0.023346	-0.000916	-0.010681	-0.007477
18.141	-0.033875	0.010681	0.024567	-0.000916	0.035248	-0.14297	-0.005646	0.03418	-0.026398	-0.090942	-0.11566	-0.008545	0	-0.036011	0.093384	-0.072937	0.000153	-0.003815	0.075836	0.082245	0.059814	-0.001373	-0.007324	-0.1915	0.012207	-0.008392	0.000153	-0.013275	-0.024872	-0.023193	-0.000458	-0.005188
18.142	-0.053711	0.011444	0.053864	0.009308	0.034027	-0.081177	-0.00824	0.03067	-0.048828	-0.03067	-0.046387	-0.000458	-0.032196	-0.019073	0.098267	-0.054321	-0.000916	-0.003357	0.058136	-0.012207	0.075836	-0.000458	0.001373	-0.10727	0.014191	0	0.007629	-0.019836	-0.014496	-0.033417	0.009155	-0.003357
18.143	-0.065002	0.005646	0.05722	0.014954	0.005035	-0.035248	-0.009003	-0.013123	-0.050354	-0.00885	-0.087891	-0.018158	-0.054016	0.000916	-0.028381	-0.074463	-0.004883	0	0.031128	-0.086212	0.056915	-0.00412	0.016174	0.04425	0.016174	0.00473	0.005188	-0.023499	0.015411	-0.029144	-0.004578	-0.001373
18.144	-0.15671	0.010986	-0.025787	0.029449	0.017853	0.11047	0.003204	-0.18936	-0.036011	0.018311	-0.094452	-0.005646	-0.046387	0.020599	-0.10391	0.10788	-0.002747	-0.005035	0.053101	-0.088654	0.03006	0.006104	0.028076	0.14542	0.010071	0.006866	0.002441	-0.021057	0.005341	0.010834	-0.001221	0.001373
18.145	-0.11047	0.01297	-0.15137	0.0177	0.031433	0.38162	0.007935	-0.27145	-0.027771	0.030518	-0.14633	0.014191	-0.033417	0.029449	-0.012054	0.024414	-0.003052	-0.005188	0.03891	0.073242	0.061798	0.00946	0.020905	0.15228	0.007782	0.005341	0.011139	-0.013428	0.005341	0.013733	-0.001526	0.008545
